<?xml version="1.0" encoding="utf-8"?>
<!-- Generator: Adobe Illustrator 24.0.1, SVG Export Plug-In . SVG Version: 6.00 Build 0)  -->
<svg version="1.1" id="Layer_1" xmlns="http://www.w3.org/2000/svg" xmlns:xlink="http://www.w3.org/1999/xlink" x="0px" y="0px"
	 viewBox="0 0 1200 800" style="enable-background:new 0 0 1200 800;" xml:space="preserve">
<style type="text/css">
	.st0{fill:#323231;}
</style>
<g>
	<g>
		<path class="st0" d="M-0.88,364.35c7.28-0.06,12.01-1.35,14.2-3.88c2.18-2.52,3.27-6.3,3.27-11.35v-90.87
			c0-5.19-1.25-8.61-3.74-10.25c-2.49-1.64-6.91-2.71-13.26-3.2v-4.86h48.19l37.64,88.53H87l37.42-88.53h48.22v4.86
			c-6.48,0.5-10.9,1.69-13.26,3.58c-2.37,1.89-3.55,6.52-3.55,13.89v84.61c0,7.04,1.18,11.64,3.55,13.82
			c2.37,2.18,6.79,3.39,13.26,3.64v4.86h-63.51v-4.86c5.66-0.19,9.93-1.14,12.79-2.85c2.86-1.71,4.3-5.46,4.3-11.25v-93.48h-1.4
			L77.94,369.21h-5.13l-47.35-110.2h-0.84v86.48c0,6.38,1.18,11.04,3.55,13.98c2.37,2.94,7.6,4.57,15.69,4.88v4.86H-0.88V364.35z"/>
		<path class="st0" d="M194.3,330.85c8.28-5.05,21.26-10.13,38.94-15.25v-13.92c0-5.66-1.2-9.85-3.6-12.56
			c-2.4-2.71-6.65-4.06-12.75-4.06c-3.42,0-6.24,0.64-8.45,1.91c-2.21,1.28-3.32,2.88-3.32,4.81c0,0.75,0.12,1.37,0.37,1.87
			c0.25,0.5,0.62,1.03,1.12,1.59l1.12,1.31c0.87,1.06,1.57,2.23,2.1,3.5c0.53,1.28,0.79,2.63,0.79,4.06c0,3.61-1.2,6.4-3.6,8.36
			c-2.4,1.96-5.18,2.94-8.36,2.94c-3.67,0-6.8-1.09-9.39-3.26c-2.58-2.17-3.88-5.31-3.88-9.41c0-7.33,3.46-13.13,10.37-17.42
			c6.91-4.28,15.41-6.43,25.5-6.43c10.83,0,19.89,2.09,27.18,6.26c7.22,4.23,10.83,12.02,10.83,23.35v46.32
			c0,1.37,0.36,2.54,1.07,3.5c0.71,0.97,1.51,1.45,2.38,1.45c0.75,0,1.42-0.14,2.01-0.42c0.59-0.28,1.51-1.04,2.76-2.29l2.9,4.02
			c-3.74,4.36-7.88,7.41-12.42,9.15c-2.86,1.12-5.88,1.68-9.06,1.68c-5.67,0-9.81-1.65-12.42-4.96c-1.49-1.87-2.58-4.65-3.27-8.33
			c-5.29,5.31-11.27,9.05-17.93,11.23c-4.05,1.37-8.03,2.06-11.95,2.06c-5.23,0-10.12-1.67-14.66-5c-4.54-3.34-6.82-8.53-6.82-15.58
			C181.88,342.73,186.02,335.9,194.3,330.85z M227.64,355.47c1.49-1.12,3.27-2.87,5.32-5.24v-28c-5.11,1.25-9.59,3.21-13.45,5.9
			c-6.54,4.56-9.81,10.36-9.81,17.42c0,4.18,0.95,7.35,2.85,9.51c1.9,2.15,4.03,3.23,6.4,3.23
			C222.07,358.28,224.97,357.35,227.64,355.47z"/>
		<path class="st0" d="M277.51,340.26h5.32c1.87,9.15,5.35,15.61,10.46,19.38c5.1,3.77,10.33,5.65,15.69,5.65
			c4.92,0,8.53-1.11,10.83-3.32c2.3-2.21,3.46-5.12,3.46-8.73c0-3.42-1.25-6.35-3.74-8.78c-1.37-1.31-3.58-2.71-6.63-4.2l-14.2-6.91
			c-7.47-3.67-12.83-7.66-16.06-11.95c-3.3-4.3-4.95-9.37-4.95-15.22c0-7.41,2.58-13.81,7.75-19.19c5.17-5.38,12.39-8.08,21.67-8.08
			c4.05,0,8.34,0.67,12.89,2.01c4.54,1.34,7.38,2.01,8.5,2.01c1.56,0,2.66-0.33,3.32-0.98c0.65-0.65,1.2-1.57,1.63-2.75h4.2v27.64
			h-4.86c-1.81-6.48-4.76-11.67-8.87-15.6c-4.11-3.92-8.9-5.88-14.38-5.88c-4.23,0-7.39,1.18-9.48,3.55
			c-2.09,2.37-3.13,4.92-3.13,7.66c0,2.24,0.93,4.48,2.8,6.72c1.81,2.3,5.23,4.67,10.27,7.1l10.46,5.04
			c6.48,3.11,11.21,6.13,14.2,9.06c4.98,4.98,7.47,11.11,7.47,18.4c0,7.1-2.57,13.71-7.7,19.85c-5.14,6.13-12.84,9.2-23.11,9.2
			c-2.55,0-5.12-0.26-7.7-0.79c-2.58-0.53-5.78-1.45-9.57-2.75l-3.27-1.12c-1.18-0.44-1.91-0.68-2.19-0.75s-0.64-0.09-1.07-0.09
			c-1.06,0-1.98,0.42-2.76,1.26c-0.78,0.84-1.67,2.26-2.66,4.25h-4.58V340.26z"/>
		<path class="st0" d="M350.17,289.55v-5.32c1.68-1.56,3.77-3.39,6.26-5.51c3.3-3.05,6.41-6.19,9.34-9.43
			c5.79-6.35,11.05-13.17,15.78-20.45h4.86v32.31h18.21v8.41h-18.21v57.53c0,2.68,0.4,4.92,1.21,6.72c1.25,2.8,3.3,4.2,6.16,4.2
			c2.49,0,4.58-0.89,6.26-2.66c1.68-1.77,3.36-4.22,5.04-7.33l4.58,2.24c-2.24,5.23-4.91,9.49-8.02,12.79
			c-5.47,5.79-12.16,8.69-20.06,8.69c-4.48,0-8.4-0.84-11.76-2.52c-6.47-3.24-9.72-9.12-9.75-17.65v-62.01H350.17z"/>
		<path class="st0" d="M426.72,291.09c7.82-8.12,17.25-12.19,28.29-12.19c6.29,0,12.22,1.65,17.77,4.95
			c5.55,3.3,9.82,7.88,12.81,13.73c2.24,4.42,3.8,10.15,4.67,17.18c0.44,3.3,0.66,5.82,0.66,7.56h-48.84
			c0.44,7.66,1.68,14.29,3.74,19.89c3.74,10.52,10.32,15.78,19.75,15.78c4.49,0,8.73-1.4,12.73-4.2c2.43-1.68,5.46-4.51,9.08-8.5
			l4.39,2.71c-5.92,9.71-12.78,16.47-20.57,20.27c-5.05,2.43-10.85,3.64-17.39,3.64c-9.41,0-18.23-3.7-26.46-11.11
			c-8.23-7.41-12.34-19.24-12.34-35.49C414.98,310.62,418.89,299.21,426.72,291.09z M467.38,315.23c-0.13-11.27-1-19.14-2.63-23.63
			c-1.63-4.48-4.87-6.72-9.75-6.72c-5,0-8.42,2.58-10.26,7.75c-1.84,5.17-2.89,12.7-3.14,22.6H467.38z"/>
		<path class="st0" d="M499.13,364.63c3.67-0.44,6.22-1.31,7.66-2.61c1.43-1.31,2.21-3.83,2.33-7.56l0.19-5.6v-52.02
			c0-4.02-0.69-6.75-2.05-8.19c-1.37-1.44-4.08-2.42-8.12-2.92v-4.58h36.24v15.04c4.05-5.29,8.08-9.49,12.07-12.61
			c3.99-3.11,8.61-4.67,13.85-4.67c3.93,0,7.47,1.26,10.62,3.78c3.15,2.52,4.73,6.21,4.73,11.07c0,3.74-1.11,6.82-3.32,9.25
			c-2.22,2.43-5.1,3.64-8.66,3.64c-4.06,0-7.57-1.9-10.53-5.7c-2.97-3.8-5.04-5.7-6.22-5.7c-2.56,0-5.13,1.57-7.72,4.72
			c-2.59,3.14-3.88,7.65-3.88,13.51v36.22c0,6.31,0.92,10.25,2.76,11.83c1.84,1.58,5.49,2.61,10.97,3.11v4.58h-50.9V364.63z"/>
		<path class="st0" d="M585.42,340.26h5.32c1.87,9.15,5.35,15.61,10.46,19.38c5.11,3.77,10.34,5.65,15.69,5.65
			c4.92,0,8.53-1.11,10.83-3.32c2.3-2.21,3.46-5.12,3.46-8.73c0-3.42-1.25-6.35-3.74-8.78c-1.37-1.31-3.58-2.71-6.63-4.2l-14.2-6.91
			c-7.47-3.67-12.83-7.66-16.06-11.95c-3.3-4.3-4.95-9.37-4.95-15.22c0-7.41,2.58-13.81,7.75-19.19c5.17-5.38,12.39-8.08,21.67-8.08
			c4.05,0,8.34,0.67,12.89,2.01c4.54,1.34,7.38,2.01,8.5,2.01c1.56,0,2.66-0.33,3.32-0.98s1.2-1.57,1.63-2.75h4.2v27.64h-4.86
			c-1.81-6.48-4.76-11.67-8.87-15.6c-4.11-3.92-8.9-5.88-14.38-5.88c-4.23,0-7.39,1.18-9.48,3.55c-2.09,2.37-3.13,4.92-3.13,7.66
			c0,2.24,0.93,4.48,2.8,6.72c1.81,2.3,5.23,4.67,10.27,7.1l10.46,5.04c6.48,3.11,11.21,6.13,14.2,9.06
			c4.98,4.98,7.47,11.11,7.47,18.4c0,7.1-2.57,13.71-7.7,19.85c-5.14,6.13-12.84,9.2-23.11,9.2c-2.55,0-5.12-0.26-7.7-0.79
			c-2.58-0.53-5.77-1.45-9.57-2.75l-3.27-1.12c-1.18-0.44-1.91-0.68-2.19-0.75c-0.28-0.06-0.64-0.09-1.07-0.09
			c-1.06,0-1.98,0.42-2.76,1.26c-0.78,0.84-1.67,2.26-2.66,4.25h-4.58V340.26z"/>
	</g>
	<g>
		<path class="st0" d="M704.46,239.96h115.15l0.19,38.57h-5.51c-1.81-13.8-6.97-23.13-15.5-28c-4.79-2.68-11.95-4.15-21.48-4.4
			v100.75c0,7.04,1.23,11.71,3.69,14.02c2.46,2.31,7.58,3.46,15.36,3.46v4.86h-68.17v-4.86c7.47,0,12.44-1.17,14.9-3.5
			c2.46-2.34,3.69-6.99,3.69-13.97V246.12c-9.34,0.25-16.5,1.72-21.48,4.4c-9.15,5-14.32,14.33-15.5,28h-5.51L704.46,239.96z"/>
	</g>
	<g>
		<path class="st0" d="M825.87,292.07c8.19-8.9,18.48-13.35,30.87-13.35c12.64,0,22.99,4.54,31.05,13.63
			c8.06,9.09,12.09,20.11,12.09,33.06c0,12.76-3.98,23.74-11.95,32.92c-7.97,9.18-18.37,13.77-31.19,13.77
			c-12.45,0-22.76-4.47-30.91-13.4c-8.16-8.93-12.23-20.03-12.23-33.29C813.59,312.09,817.69,300.97,825.87,292.07z M843.76,353.52
			c2.18,8.28,6.51,12.42,12.98,12.42c6.16,0,10.21-3.18,12.14-9.53c1.93-6.35,2.9-16.68,2.9-31.01c0-14.26-1.01-24.58-3.04-30.96
			c-2.02-6.38-5.99-9.57-11.91-9.57c-6.48,0-10.8,4.14-12.98,12.42c-1.43,5.54-2.15,14.91-2.15,28.11
			C841.7,338.8,842.39,348.16,843.76,353.52z"/>
		<path class="st0" d="M944.15,281.14v64.91c0,3.86,0.47,6.69,1.4,8.5c1.62,3.18,4.83,4.76,9.62,4.76c3.05,0,6.04-0.97,8.97-2.9
			c1.68-1.06,3.8-2.83,6.35-5.32v-54.26c0-4.02-0.79-6.83-2.38-8.43c-1.59-1.6-4.78-2.5-9.57-2.68v-4.58h38.1v68.92
			c0,3.95,0.75,6.69,2.24,8.2c1.49,1.51,4.42,2.45,8.78,2.82v4.39c-11.83,1.12-19.28,1.95-22.37,2.47s-8.02,1.85-14.8,3.97v-12.61
			c-4.54,3.92-8.31,6.69-11.3,8.31c-5.23,2.86-10.68,4.3-16.34,4.3c-6.16,0-11.91-1.96-17.23-5.88c-5.32-3.92-7.98-10.89-7.98-20.92
			v-48.28c0-4.09-0.65-6.76-1.96-8.01c-1.31-1.26-3.83-2.29-7.56-3.1v-4.58H944.15z"/>
		<path class="st0" d="M1081.57,284.6c5.88,3.92,8.83,8.97,8.83,15.13c0,3.3-1.17,6.16-3.5,8.59c-2.33,2.43-5.31,3.64-8.92,3.64
			c-2.43,0-4.54-0.56-6.35-1.68c-3.42-1.99-5.14-5.6-5.14-10.83c0-0.56,0.03-1.39,0.09-2.47c0.06-1.09,0.09-2.26,0.09-3.5
			c0-3.36-0.78-5.66-2.33-6.91c-1.62-1.25-3.46-1.87-5.51-1.87c-5.91,0-10.12,3.25-12.61,9.76c-2.49,6.51-3.74,13.96-3.74,22.37
			c0,11.95,2.37,21.98,7.1,30.07c4.73,8.09,11.11,12.14,19.14,12.14c5.04,0,9.34-1.12,12.89-3.36c2.12-1.31,4.73-3.7,7.84-7.19
			l3.55,3.27c-6.23,8.65-13.51,14.6-21.85,17.84c-4.42,1.68-9.12,2.52-14.1,2.52c-12.27,0-22.29-4.39-30.07-13.17
			c-7.78-8.78-11.67-19.49-11.67-32.13c0-13.32,4.12-24.67,12.37-34.04c8.25-9.37,19.25-14.06,33.01-14.06
			C1068.73,278.71,1075.69,280.67,1081.57,284.6z"/>
		<path class="st0" d="M1099.36,364.63c3.49-0.44,6.05-1.39,7.7-2.85s2.47-4.37,2.47-8.73v-97.41c0-3.83-0.68-6.51-2.05-8.05
			c-1.37-1.54-4.08-2.56-8.12-3.06v-4.58h36.98v53.79c3.92-4.73,8.05-8.39,12.37-10.97c4.33-2.58,9.2-3.88,14.62-3.88
			c7.35,0,13.42,2.13,18.21,6.4c4.79,4.26,7.19,11.53,7.19,21.81v45.95c0,4.3,0.73,7.11,2.19,8.45c1.46,1.34,3.91,2.38,7.33,3.13
			v4.58h-44.92v-4.58c3.42-0.68,5.76-1.62,7-2.8c1.25-1.18,1.87-3.86,1.87-8.03v-46.32c0-4.36-0.44-7.63-1.31-9.81
			c-1.49-3.92-4.45-5.88-8.87-5.88c-3.3,0-6.71,1.53-10.23,4.58c-3.52,3.05-5.28,5.14-5.28,6.26v51.18c0,4.17,0.62,6.85,1.87,8.03
			c1.25,1.18,3.58,2.12,7,2.8v4.58h-46.04V364.63z"/>
	</g>
	<g>
		<path class="st0" d="M456.6,450.48c2.33,4.77,5.07,8.58,8.22,11.41c5.48,4.95,12.28,7.42,20.41,7.42c4.4,0,8.21-1.07,11.42-3.22
			c3.21-2.15,4.81-5.14,4.81-8.98c0-3.46-1.62-6.47-4.85-9.03c-2.11-1.63-6.55-4.07-13.33-7.32l-11.78-5.66
			c-3.55-1.73-6.38-3.48-8.49-5.24c-3.91-3.35-5.87-7.06-5.87-11.1c0-5.36,2.32-9.82,6.95-13.39c4.63-3.56,10.77-5.34,18.41-5.34
			c3.15,0,6.94,0.6,11.37,1.79c4.43,1.19,6.96,1.79,7.59,1.79c1.71,0,2.89-0.31,3.54-0.93c0.65-0.62,1.16-1.5,1.52-2.65h2.83
			l3.04,22.62h-3.3c-2.25-6.81-5.86-11.57-10.83-14.27c-4.97-2.7-9.88-4.05-14.74-4.05c-3.78,0-7.07,0.86-9.88,2.57
			c-2.81,1.71-4.22,4.09-4.22,7.13c0,2.73,1.08,5.07,3.23,7c2.15,1.97,5.5,4.03,10.04,6.17l12.13,5.76
			c7.59,3.6,12.95,6.9,16.06,9.91c3.07,3.04,4.61,6.64,4.61,10.79c0,5.57-2.73,10.22-8.19,13.96c-5.46,3.74-12.44,5.6-20.94,5.6
			c-4.27,0-8.73-0.62-13.39-1.87c-4.65-1.25-7.32-1.87-7.99-1.87c-1.62,0-2.71,0.38-3.27,1.14c-0.56,0.76-0.93,1.57-1.11,2.44h-3.04
			l-4.11-22.62H456.6z"/>
		<path class="st0" d="M539.36,448.97c4.14-2.08,12.39-4.9,24.75-8.46v-4.41c0-3.53-0.45-5.98-1.35-7.37
			c-1.53-2.32-4.7-3.48-9.51-3.48c-2.29,0-4.47,0.45-6.54,1.35c-2.07,0.93-3.1,2.21-3.1,3.84c0,0.42,0.11,1.12,0.34,2.1
			c0.22,0.99,0.34,1.62,0.34,1.89c0,1.94-0.83,3.29-2.5,4.05c-0.94,0.45-2.07,0.67-3.37,0.67c-2.02,0-3.57-0.51-4.65-1.53
			c-1.08-1.02-1.62-2.15-1.62-3.4c0-2.42,1.94-4.95,5.83-7.6c3.89-2.65,9.59-3.97,17.1-3.97c8.72,0,14.64,2.18,17.74,6.54
			c1.66,2.39,2.5,5.86,2.5,10.43v20.81c0,2.01,0.18,3.39,0.54,4.15c0.58,1.35,1.8,2.02,3.64,2.02c1.03,0,1.89-0.12,2.56-0.36
			c0.67-0.24,1.84-0.83,3.51-1.76v2.7c-1.44,1.35-2.99,2.46-4.65,3.32c-2.52,1.32-5.08,1.97-7.69,1.97c-3.06,0-5.27-0.76-6.64-2.28
			c-1.37-1.52-2.12-3.34-2.26-5.45c-3.42,2.28-6.34,3.98-8.77,5.08c-4.09,1.87-7.98,2.8-11.67,2.8c-3.87,0-7.22-1.05-10.05-3.14
			s-4.25-4.75-4.25-7.96C529.58,456.51,532.84,452.33,539.36,448.97z M564.12,443.11c-5.17,1.32-9.44,2.77-12.82,4.36
			c-6.47,3.08-9.71,6.57-9.71,10.48c0,3.15,1.35,5.47,4.05,6.95c1.75,0.97,3.71,1.45,5.87,1.45c2.97,0,5.81-0.64,8.53-1.92
			c2.72-1.28,4.08-2.91,4.08-4.88V443.11z"/>
		<path class="st0" d="M588.67,470.4c4.18-0.31,7.01-0.96,8.5-1.95c1.48-0.99,2.23-2.91,2.23-5.78v-50.69
			c0-2.28-0.25-3.86-0.74-4.72c-0.9-1.45-2.72-2.18-5.46-2.18c-0.63,0-1.32,0.05-2.06,0.16c-0.74,0.1-1.68,0.26-2.8,0.47v-1.71
			c6.07-1.25,13.38-2.91,21.92-4.98c0.31,0,0.51,0.1,0.57,0.31c0.07,0.21,0.1,0.66,0.1,1.35v62.21c0,3.01,0.67,4.95,2.02,5.84
			c1.35,0.88,4.14,1.44,8.36,1.69v1.45h-32.64V470.4z"/>
		<path class="st0" d="M636.25,430.32c5.69-4.76,13.01-7.13,21.95-7.13c8.9,0,16.28,2.25,22.12,6.74c5.84,4.5,8.77,10.48,8.77,17.95
			c0,6.88-2.83,12.87-8.5,17.95c-5.67,5.08-12.99,7.63-21.99,7.63c-8.63,0-15.94-2.44-21.92-7.32c-5.98-4.88-8.97-11-8.97-18.37
			C627.72,440.9,630.56,435.08,636.25,430.32z M647.02,429c-4.51,3.15-6.76,8.58-6.76,16.29c0,6.16,1.81,11.9,5.44,17.23
			c3.63,5.33,8.66,7.99,15.1,7.99c5.05,0,8.93-1.78,11.66-5.34c2.73-3.56,4.09-8.23,4.09-14.01c0-5.98-1.74-11.62-5.2-16.91
			s-8.49-7.94-15.07-7.94C652.72,426.3,649.64,427.2,647.02,429z"/>
		<path class="st0" d="M695.78,470.4c3.19-0.31,5.43-0.93,6.71-1.84s1.92-2.97,1.92-6.15v-26.36c0-2.19-0.27-3.74-0.81-4.63
			c-0.85-1.3-2.61-1.96-5.26-1.96c-0.4,0-0.82,0.02-1.25,0.05c-0.43,0.03-0.95,0.09-1.59,0.16v-1.82c1.84-0.42,6.21-1.49,13.08-3.22
			l6.34-1.61c0.31,0,0.51,0.09,0.57,0.26c0.07,0.17,0.1,0.42,0.1,0.73v7.63c4.13-2.98,7.36-5.01,9.69-6.12
			c3.5-1.69,7.14-2.54,10.91-2.54c3.05,0,5.83,0.67,8.35,2.02c4.85,2.63,7.27,7.32,7.27,14.06v24.23c0,2.49,0.65,4.29,1.94,5.4
			c1.29,1.11,3.46,1.68,6.49,1.71v1.45h-28.8v-1.45c3.28-0.35,5.57-1.05,6.88-2.1c1.3-1.06,1.96-3.35,1.96-6.87v-22.15
			c0-2.98-0.72-5.44-2.15-7.39c-1.43-1.95-4.07-2.93-7.91-2.93c-2.64,0-5.32,0.69-8.05,2.08c-1.52,0.8-3.49,2.11-5.9,3.94v29.05
			c0,2.49,0.72,4.16,2.16,5.01s3.71,1.3,6.81,1.37v1.45h-29.47V470.4z"/>
	</g>
	<path class="st0" d="M16.51,454.28c8.84-8.02,18.6-14,29.28-17.92c18.99-7.07,44.62-10.6,76.9-10.6c18.21,0,53.73,2.3,106.56,6.9
		l0,0c52.82,4.6,86.52,6.9,101.1,6.9c19.25,0,36.76,0.62,50.03-3.26c6.79-1.99,33.32-8.05,45.99-14.32l0,0
		c-13.01,11.11-28.63,18.71-46.84,22.81c-17.96,4.1-39.03,6.14-63.24,6.14c-22.38,0-59.33-2.36-110.86-7.07
		c-51.27-4.71-82.89-7.07-94.85-7.07c-21.35,0-41.94,0.12-56.77,5"/>
</g>
<path class="st0" d="M779.13,454.64c8.84-8.02,18.6-14,29.28-17.92c18.99-7.07,44.62-10.6,76.9-10.6c18.21,0,53.73,2.3,106.56,6.9
	l0,0c52.82,4.6,86.52,6.9,101.1,6.9c19.25,0,36.76,0.62,50.03-3.26c6.79-1.99,33.32-8.05,45.99-14.32l0,0
	c-13.01,11.11-28.63,18.71-46.84,22.81c-17.96,4.1-39.03,6.14-63.24,6.14c-22.38,0-59.33-2.36-110.86-7.07
	c-51.27-4.71-82.89-7.07-94.85-7.07c-21.35,0-43.38,1.37-58.21,6.25"/>
<g>
	<path class="st0" d="M538.07,615.85h-4.98l-3.14,5.08h5.63c-2.33,4.88-4.25,9.08-5.77,12.64c-3.59,5.3-6.68,8.97-9.27,11.08
		c0.83-2.12,1.2-4.52,1.2-7.2c0-7.29-4.52-11.72-4.52-15.14c0-1.75,0.83-2.86,2.03-2.86c1.02,0,2.95,1.85,4.52,1.85
		c2.58,0,4.25-2.31,4.25-4.89c0-2.49-2.31-4.43-5.91-4.43c-7.75,0-11.81,5.17-11.81,11.07c0,0.37,0,0.74,0.09,1.2l-6.83,9.78h-0.46
		c-2.83,0-5.05,2.31-6.09,5.24c-0.17-1.09-0.44-2.16-0.83-3.21c-1.75-4.8-5.54-7.2-11.35-7.2c-6.37,0-9.51,4.71-9.6,9.14
		c1.48-0.64,2.77-0.92,3.97-0.92c2.77,0.09,4.61,1.48,5.54,4.34c0.92,3.23,0.37,6.64-1.66,10.24c-2.4,4.25-5.72,6.37-10.06,6.37
		c-6.37,0-10.8-6.18-10.43-14.4c0.55-9.23,6.28-21.59,23.72-22.89h0.46h0.92c6,0.09,11.72-5.81,11.44-7.01
		c0-0.18-0.09-0.28-0.28-0.28h-0.18c-0.83,0.28-2.95,0.74-3.78,1.01c-0.74,0.09-2.22,0.37-3.32,0.37c-6.83,0-9.69-6.18-9.41-12.27
		c0.46-5.54,3.23-10.98,8.95-10.98c4.34,0,6.46,2.77,6.37,6c-0.09,2.31-1.57,4.25-3.78,4.25c-0.83,0-1.57-0.37-2.22-1.11
		c-0.37,0.92-0.55,1.75-0.65,2.58c-0.09,3.23,2.4,4.98,5.63,4.98c5.54,0,9.04-4.8,9.23-9.97c0.18-3.41-0.92-6.37-3.32-8.86
		c-2.31-2.49-5.91-3.78-10.61-3.78c-12.74,0-19.1,8.49-19.38,16.43v0.37c-0.28,5.81,2.31,11.54,6.46,14.95
		c-8.49,1.02-15.78,4.62-20.21,9.78c-4.43,5.08-6.92,11.17-7.29,17.35c-0.55,11.26,6.18,21.6,20.3,21.6c3.6,0,6.92-0.65,10.06-2.03
		c5.91-2.49,10.24-6.74,13.1-12.74c0.9-1.89,1.52-3.71,1.92-5.47c1.07,4.23,4.57,7.04,10.26,7.04c3.88,0,7.01-0.92,9.41-2.68
		c3.2-1.12,6.38-3.56,9.93-7.62c-0.09,0.27-0.17,0.54-0.24,0.79c-0.46,1.38-0.65,2.58-0.65,3.79c0,3.41,1.85,5.63,5.54,5.63
		c5.81,0,14.03-7.11,22.52-20.12l-2.4-1.48c-1.2,1.85-1.94,2.77-3.51,4.98c-1.57,2.12-2.68,3.41-4.43,5.26
		c-2.4,2.58-4.8,4.15-6.83,4.15c-1.38,0-2.12-0.83-2.12-2.49c0-1.38,0.55-3.23,1.57-5.54l8.21-16.7h5.35l2.22-5.08h-5.17
		l11.26-23.16h-7.84L538.07,615.85z M507.24,646.76c-1.85,0-3.6-1.75-3.6-3.6c0-1.38,4.25-0.92,4.25-5.81c0-1.02-0.37-1.85-1.2-2.4
		l4.8-6.92c1.38,4.25,2.03,7.57,2.03,10.06C513.52,642.52,510.93,646.76,507.24,646.76z"/>
	<path class="st0" d="M553.33,645.47c-1.85-0.37-3.78,0.83-4.43,2.68c-0.65,1.94,0.37,3.78,2.22,4.15s3.88-0.74,4.52-2.68
		C556.19,647.78,555.26,645.84,553.33,645.47z"/>
	<path class="st0" d="M614.26,587.7c-13.57,0-20.76,8.86-20.76,15.78c0,4.89,3.88,7.94,8.03,7.94c3.23,0,5.81-1.85,5.91-5.17
		c-2.12,0-3.41-1.38-3.41-3.14c0-2.68,1.01-4.89,3.05-6.64c2.12-1.75,4.15-2.68,6.09-2.68c2.12,0,3.97,1.29,3.97,3.6
		c0,2.49-1.2,5.81-3.6,9.78c-2.31,3.97-5.17,8.03-8.58,12.18l-10.15,12.37c-3.41,4.15-6.28,8.12-8.68,11.9
		c-2.31,3.78-3.51,6.83-3.51,9.14l1.11-0.55c1.48-0.83,4.61-1.85,7.29-1.85c1.29,0,4.52,0.37,9.78,1.01
		c5.26,0.65,8.49,0.92,9.88,0.92c3.6,0,7.11-4.8,7.11-12.55l-0.28,0.28c-0.92,0.65-3.23,2.4-6.92,2.4c-1.94,0-4.61-0.18-8.21-0.46
		c-3.51-0.37-6.09-0.55-7.75-0.64c0.83-1.02,2.4-2.58,4.71-4.71l6.74-6.55c2.31-2.12,4.71-4.71,7.29-7.57
		c5.26-5.81,9.23-10.8,11.81-16.7c1.38-3.05,2.03-5.81,2.03-8.31C627.18,590.65,620.91,587.7,614.26,587.7z"/>
	<path class="st0" d="M670.84,602.65c0-8.77-3.51-14.21-10.98-14.21c-3.97,0-7.94,1.75-11.91,5.17c-3.97,3.41-7.48,7.66-10.34,12.73
		c-2.86,5.08-5.26,10.52-7.11,16.34c-1.85,5.81-2.77,10.98-2.77,15.69c0,8.86,3.41,14.49,10.52,14.49c3.78,0,7.75-1.75,11.72-5.17
		c4.06-3.41,7.57-7.66,10.52-12.73c3.05-5.08,5.45-10.61,7.38-16.43C669.82,612.61,670.84,607.35,670.84,602.65z M657.55,616.31
		c-2.68,7.29-5.72,13.84-9.32,19.75c-3.6,5.81-6.46,8.77-8.77,8.77c-1.66,0-2.49-1.48-2.49-4.34c0-3.97,1.29-9.6,3.97-16.89
		c2.68-7.29,5.72-13.84,9.32-19.66c3.6-5.91,6.55-8.86,8.86-8.86c1.57,0,2.4,1.48,2.4,4.34
		C661.51,603.39,660.22,609.02,657.55,616.31z"/>
	<path class="st0" d="M710.52,602.65c0-8.77-3.51-14.21-10.98-14.21c-3.97,0-7.94,1.75-11.9,5.17c-3.97,3.41-7.48,7.66-10.34,12.73
		c-2.86,5.08-5.26,10.52-7.11,16.34c-1.85,5.81-2.77,10.98-2.77,15.69c0,8.86,3.41,14.49,10.52,14.49c3.78,0,7.75-1.75,11.72-5.17
		c4.06-3.41,7.57-7.66,10.52-12.73c3.05-5.08,5.44-10.61,7.38-16.43C709.5,612.61,710.52,607.35,710.52,602.65z M697.23,616.31
		c-2.68,7.29-5.72,13.84-9.32,19.75c-3.6,5.81-6.46,8.77-8.77,8.77c-1.66,0-2.49-1.48-2.49-4.34c0-3.97,1.29-9.6,3.97-16.89
		c2.68-7.29,5.72-13.84,9.32-19.66c3.6-5.91,6.55-8.86,8.86-8.86c1.57,0,2.4,1.48,2.4,4.34
		C701.2,603.39,699.91,609.02,697.23,616.31z"/>
	<path class="st0" d="M740.6,599.23c6.09,0,8.86-6.27,7.94-11.35l-0.37,0.18c-0.74,0.46-3.6,1.48-7.47,1.48
		c-1.85,0-3.97-0.37-6.37-1.2c-2.4-0.83-4.52-1.29-6.37-1.29c-0.09,0-1.48,0.37-4.15,1.01L711.9,620l8.58,2.31l0.83-1.29
		c1.11-1.85,3.79-4.06,6.65-4.06c2.21,0,3.32,1.66,3.32,4.98c0,8.03-5.91,22.61-12,22.61c-2.12,0-3.42-1.75-3.42-3.69
		c0-2.31,1.75-4.25,5.17-4.25c-0.74-3.97-3.6-6.09-7.2-6.09c-3.88,0-6.64,1.75-8.21,5.35c-1.57,3.51-1.57,7.01,0.18,10.52
		c2.12,4.34,5.91,6.46,11.44,6.46c15.87,0,25.29-18,25.29-30.82c0-8.49-3.41-11.91-10.52-11.91c-2.58,0-5.17,0.46-7.84,1.48
		l5.35-15.78C731.28,596.19,736.45,599.23,740.6,599.23z"/>
</g>
</svg>
