<?xml version="1.0" encoding="utf-8"?>
<!-- Generator: Adobe Illustrator 24.0.1, SVG Export Plug-In . SVG Version: 6.00 Build 0)  -->
<svg version="1.1" id="Layer_1" xmlns="http://www.w3.org/2000/svg" xmlns:xlink="http://www.w3.org/1999/xlink" x="0px" y="0px"
	 viewBox="0 0 1200 800" style="enable-background:new 0 0 1200 800;" xml:space="preserve">
<style type="text/css">
	.st0{fill:#FFFFFF;}
</style>
<g>
	<g>
		<path class="st0" d="M372.98,401.5c2.74-0.02,4.52-0.51,5.34-1.46c0.82-0.95,1.23-2.37,1.23-4.27v-34.21
			c0-1.96-0.47-3.24-1.41-3.86c-0.94-0.62-2.6-1.02-4.99-1.2v-1.83h18.14L405.47,388h0.6l14.09-33.33h18.15v1.83
			c-2.44,0.19-4.1,0.64-4.99,1.35c-0.89,0.71-1.34,2.45-1.34,5.23v31.85c0,2.65,0.44,4.38,1.34,5.2c0.89,0.82,2.55,1.28,4.99,1.37
			v1.83H414.4v-1.83c2.13-0.07,3.74-0.43,4.82-1.07c1.08-0.64,1.62-2.06,1.62-4.24V361h-0.53l-17.65,42.33h-1.93l-17.83-41.48h-0.32
			v32.55c0,2.4,0.44,4.16,1.34,5.26c0.89,1.11,2.86,1.72,5.91,1.84v1.83h-16.84V401.5z"/>
		<path class="st0" d="M446.46,388.89c3.12-1.9,8-3.81,14.66-5.74v-5.24c0-2.13-0.45-3.71-1.35-4.73c-0.9-1.02-2.5-1.53-4.8-1.53
			c-1.29,0-2.35,0.24-3.18,0.72c-0.83,0.48-1.25,1.08-1.25,1.81c0,0.28,0.05,0.52,0.14,0.7c0.09,0.19,0.23,0.39,0.42,0.6l0.42,0.49
			c0.33,0.4,0.59,0.84,0.79,1.32c0.2,0.48,0.3,0.99,0.3,1.53c0,1.36-0.45,2.41-1.35,3.15c-0.9,0.74-1.95,1.11-3.15,1.11
			c-1.38,0-2.56-0.41-3.53-1.23c-0.97-0.82-1.46-2-1.46-3.54c0-2.76,1.3-4.94,3.9-6.56s5.8-2.42,9.6-2.42
			c4.08,0,7.49,0.79,10.23,2.36c2.72,1.59,4.08,4.52,4.08,8.79v17.44c0,0.52,0.13,0.96,0.4,1.32c0.27,0.36,0.57,0.54,0.9,0.54
			c0.28,0,0.53-0.05,0.76-0.16c0.22-0.11,0.57-0.39,1.04-0.86l1.09,1.51c-1.41,1.64-2.97,2.79-4.68,3.45
			c-1.08,0.42-2.21,0.63-3.41,0.63c-2.13,0-3.69-0.62-4.68-1.87c-0.56-0.7-0.97-1.75-1.23-3.14c-1.99,2-4.24,3.41-6.75,4.23
			c-1.52,0.52-3.02,0.78-4.5,0.78c-1.97,0-3.81-0.63-5.52-1.88c-1.71-1.26-2.57-3.21-2.57-5.86
			C441.79,393.36,443.34,390.79,446.46,388.89z M459.01,398.16c0.56-0.42,1.23-1.08,2-1.97v-10.54c-1.92,0.47-3.61,1.21-5.06,2.22
			c-2.46,1.72-3.69,3.9-3.69,6.56c0,1.58,0.36,2.77,1.07,3.58c0.71,0.81,1.52,1.22,2.41,1.22
			C456.91,399.21,458,398.86,459.01,398.16z"/>
		<path class="st0" d="M477.79,392.43h2c0.7,3.45,2.02,5.88,3.94,7.29c1.92,1.42,3.89,2.13,5.91,2.13c1.85,0,3.21-0.42,4.08-1.25
			c0.87-0.83,1.3-1.93,1.3-3.29c0-1.29-0.47-2.39-1.41-3.3c-0.52-0.49-1.35-1.02-2.5-1.58l-5.34-2.6c-2.81-1.38-4.83-2.88-6.05-4.5
			c-1.24-1.62-1.86-3.53-1.86-5.73c0-2.79,0.97-5.2,2.92-7.22c1.95-2.03,4.66-3.04,8.16-3.04c1.52,0,3.14,0.25,4.85,0.76
			c1.71,0.5,2.78,0.76,3.2,0.76c0.59,0,1-0.12,1.25-0.37s0.45-0.59,0.62-1.04h1.58v10.41h-1.83c-0.68-2.44-1.79-4.39-3.34-5.87
			s-3.35-2.21-5.41-2.21c-1.59,0-2.78,0.45-3.57,1.34c-0.79,0.89-1.18,1.85-1.18,2.88c0,0.84,0.35,1.69,1.05,2.53
			c0.68,0.87,1.97,1.76,3.87,2.67l3.94,1.9c2.44,1.17,4.22,2.31,5.34,3.41c1.88,1.88,2.81,4.18,2.81,6.93c0,2.67-0.97,5.16-2.9,7.47
			c-1.93,2.31-4.83,3.46-8.7,3.46c-0.96,0-1.93-0.1-2.9-0.3c-0.97-0.2-2.17-0.54-3.6-1.04l-1.23-0.42
			c-0.45-0.16-0.72-0.26-0.83-0.28s-0.24-0.04-0.4-0.04c-0.4,0-0.74,0.16-1.04,0.47c-0.29,0.32-0.63,0.85-1,1.6h-1.72V392.43z"/>
		<path class="st0" d="M505.14,373.34v-2c0.63-0.59,1.42-1.28,2.36-2.07c1.24-1.15,2.41-2.33,3.52-3.55
			c2.18-2.39,4.16-4.96,5.94-7.7h1.83v12.16h6.86v3.16h-6.86V395c0,1.01,0.15,1.85,0.46,2.53c0.47,1.05,1.24,1.58,2.32,1.58
			c0.94,0,1.72-0.33,2.36-1s1.27-1.59,1.9-2.76l1.72,0.84c-0.84,1.97-1.85,3.57-3.02,4.82c-2.06,2.18-4.58,3.27-7.55,3.27
			c-1.69,0-3.16-0.32-4.43-0.95c-2.44-1.22-3.66-3.43-3.67-6.64v-23.34H505.14z"/>
		<path class="st0" d="M533.95,373.92c2.94-3.06,6.49-4.59,10.65-4.59c2.37,0,4.6,0.62,6.69,1.86c2.09,1.24,3.7,2.97,4.82,5.17
			c0.84,1.66,1.43,3.82,1.76,6.47c0.16,1.24,0.25,2.19,0.25,2.85h-18.39c0.16,2.88,0.63,5.38,1.41,7.49
			c1.41,3.96,3.89,5.94,7.43,5.94c1.69,0,3.29-0.53,4.79-1.58c0.92-0.63,2.06-1.7,3.42-3.2l1.65,1.02c-2.23,3.66-4.81,6.2-7.74,7.63
			c-1.9,0.91-4.08,1.37-6.55,1.37c-3.54,0-6.86-1.39-9.96-4.18s-4.65-7.24-4.65-13.36C529.54,381.27,531.01,376.98,533.95,373.92z
			 M549.26,383.01c-0.05-4.24-0.38-7.21-0.99-8.89s-1.83-2.53-3.67-2.53c-1.88,0-3.17,0.97-3.86,2.92
			c-0.69,1.95-1.09,4.78-1.18,8.51H549.26z"/>
		<path class="st0" d="M561.21,401.61c1.38-0.16,2.34-0.49,2.88-0.98c0.54-0.49,0.83-1.44,0.88-2.85l0.07-2.11v-19.58
			c0-1.51-0.26-2.54-0.77-3.08c-0.52-0.54-1.54-0.91-3.06-1.1v-1.72h13.64v5.66c1.53-1.99,3.04-3.57,4.54-4.75
			c1.5-1.17,3.24-1.76,5.22-1.76c1.48,0,2.81,0.47,4,1.42s1.78,2.34,1.78,4.17c0,1.41-0.42,2.57-1.25,3.48s-1.92,1.37-3.26,1.37
			c-1.53,0-2.85-0.71-3.96-2.14c-1.12-1.43-1.9-2.14-2.34-2.14c-0.96,0-1.93,0.59-2.91,1.78c-0.98,1.18-1.46,2.88-1.46,5.09v13.63
			c0,2.38,0.35,3.86,1.04,4.45c0.69,0.59,2.07,0.98,4.13,1.17v1.72h-19.16V401.61z"/>
		<path class="st0" d="M593.7,392.43h2c0.7,3.45,2.02,5.88,3.94,7.29s3.89,2.13,5.91,2.13c1.85,0,3.21-0.42,4.08-1.25
			s1.3-1.93,1.3-3.29c0-1.29-0.47-2.39-1.41-3.3c-0.52-0.49-1.35-1.02-2.5-1.58l-5.34-2.6c-2.81-1.38-4.83-2.88-6.05-4.5
			c-1.24-1.62-1.86-3.53-1.86-5.73c0-2.79,0.97-5.2,2.92-7.22c1.95-2.03,4.66-3.04,8.16-3.04c1.52,0,3.14,0.25,4.85,0.76
			c1.71,0.5,2.78,0.76,3.2,0.76c0.59,0,1-0.12,1.25-0.37s0.45-0.59,0.62-1.04h1.58v10.41h-1.83c-0.68-2.44-1.79-4.39-3.34-5.87
			s-3.35-2.21-5.41-2.21c-1.59,0-2.78,0.45-3.57,1.34c-0.79,0.89-1.18,1.85-1.18,2.88c0,0.84,0.35,1.69,1.05,2.53
			c0.68,0.87,1.97,1.76,3.87,2.67l3.94,1.9c2.44,1.17,4.22,2.31,5.34,3.41c1.88,1.88,2.81,4.18,2.81,6.93c0,2.67-0.97,5.16-2.9,7.47
			c-1.93,2.31-4.83,3.46-8.7,3.46c-0.96,0-1.93-0.1-2.9-0.3s-2.17-0.54-3.6-1.04l-1.23-0.42c-0.45-0.16-0.72-0.26-0.83-0.28
			s-0.24-0.04-0.4-0.04c-0.4,0-0.74,0.16-1.04,0.47c-0.29,0.32-0.63,0.85-1,1.6h-1.72V392.43z"/>
	</g>
	<g>
		<path class="st0" d="M638.51,354.67h43.35l0.07,14.52h-2.07c-0.68-5.19-2.62-8.71-5.84-10.54c-1.8-1.01-4.5-1.56-8.09-1.66v37.93
			c0,2.65,0.46,4.41,1.39,5.28s2.85,1.3,5.78,1.3v1.83h-25.66v-1.83c2.81,0,4.68-0.44,5.61-1.32s1.39-2.63,1.39-5.26v-37.93
			c-3.52,0.09-6.21,0.65-8.09,1.66c-3.45,1.88-5.39,5.39-5.84,10.54h-2.07L638.51,354.67z"/>
	</g>
	<g>
		<path class="st0" d="M684.21,374.29c3.08-3.35,6.96-5.03,11.62-5.03c4.76,0,8.65,1.71,11.69,5.13c3.04,3.42,4.55,7.57,4.55,12.45
			c0,4.8-1.5,8.94-4.5,12.39s-6.91,5.19-11.74,5.19c-4.69,0-8.57-1.68-11.64-5.04c-3.07-3.36-4.61-7.54-4.61-12.53
			C679.59,381.82,681.13,377.64,684.21,374.29z M690.95,397.42c0.82,3.12,2.45,4.68,4.89,4.68c2.32,0,3.84-1.2,4.57-3.59
			s1.09-6.28,1.09-11.67c0-5.37-0.38-9.25-1.14-11.65c-0.76-2.4-2.26-3.6-4.48-3.6c-2.44,0-4.07,1.56-4.89,4.68
			c-0.54,2.09-0.81,5.61-0.81,10.58C690.17,391.88,690.43,395.41,690.95,397.42z"/>
		<path class="st0" d="M728.74,370.18v24.43c0,1.45,0.18,2.52,0.53,3.2c0.61,1.2,1.82,1.79,3.62,1.79c1.15,0,2.27-0.36,3.38-1.09
			c0.63-0.4,1.43-1.07,2.39-2v-20.43c0-1.51-0.3-2.57-0.9-3.17s-1.8-0.94-3.6-1.01v-1.72h14.34v25.95c0,1.49,0.28,2.52,0.84,3.09
			c0.56,0.57,1.66,0.92,3.3,1.06v1.65c-4.45,0.42-7.26,0.73-8.42,0.93s-3.02,0.7-5.57,1.49v-4.75c-1.71,1.48-3.13,2.52-4.25,3.13
			c-1.97,1.08-4.02,1.62-6.15,1.62c-2.32,0-4.48-0.74-6.49-2.21s-3.01-4.1-3.01-7.88v-18.18c0-1.54-0.25-2.54-0.74-3.02
			s-1.44-0.86-2.85-1.17v-1.72H728.74z"/>
		<path class="st0" d="M780.47,371.48c2.21,1.48,3.32,3.38,3.32,5.7c0,1.24-0.44,2.32-1.32,3.23s-2,1.37-3.36,1.37
			c-0.91,0-1.71-0.21-2.39-0.63c-1.29-0.75-1.93-2.11-1.93-4.08c0-0.21,0.01-0.52,0.04-0.93c0.02-0.41,0.04-0.85,0.04-1.32
			c0-1.27-0.29-2.13-0.88-2.6c-0.61-0.47-1.3-0.7-2.07-0.7c-2.23,0-3.81,1.23-4.75,3.67c-0.94,2.45-1.41,5.26-1.41,8.42
			c0,4.5,0.89,8.27,2.67,11.32c1.78,3.05,4.18,4.57,7.21,4.57c1.9,0,3.52-0.42,4.85-1.27c0.8-0.49,1.78-1.39,2.95-2.71l1.34,1.23
			c-2.34,3.26-5.09,5.5-8.23,6.71c-1.66,0.63-3.43,0.95-5.31,0.95c-4.62,0-8.39-1.65-11.32-4.96s-4.39-7.34-4.39-12.09
			c0-5.02,1.55-9.29,4.66-12.81c3.11-3.53,7.25-5.29,12.43-5.29C775.64,369.26,778.26,370,780.47,371.48z"/>
		<path class="st0" d="M787.17,401.61c1.31-0.16,2.28-0.52,2.9-1.07s0.93-1.65,0.93-3.29v-36.67c0-1.44-0.26-2.45-0.77-3.03
			c-0.52-0.58-1.54-0.96-3.06-1.15v-1.72h13.92v20.25c1.48-1.78,3.03-3.16,4.66-4.13c1.63-0.97,3.46-1.46,5.5-1.46
			c2.77,0,5.05,0.8,6.86,2.41c1.8,1.61,2.71,4.34,2.71,8.21v17.3c0,1.62,0.28,2.68,0.83,3.18s1.47,0.9,2.76,1.18v1.72h-16.91v-1.72
			c1.29-0.26,2.17-0.61,2.64-1.05s0.7-1.45,0.7-3.02v-17.44c0-1.64-0.16-2.87-0.49-3.69c-0.56-1.48-1.68-2.21-3.34-2.21
			c-1.24,0-2.53,0.57-3.85,1.72c-1.32,1.15-1.99,1.93-1.99,2.36v19.27c0,1.57,0.23,2.58,0.7,3.02s1.35,0.8,2.64,1.05v1.72h-17.33
			V401.61z"/>
	</g>
	<g>
		<path class="st0" d="M545.2,433.92c0.88,1.8,1.91,3.23,3.09,4.3c2.06,1.86,4.62,2.79,7.68,2.79c1.66,0,3.09-0.4,4.3-1.21
			s1.81-1.93,1.81-3.38c0-1.3-0.61-2.43-1.82-3.4c-0.79-0.61-2.47-1.53-5.02-2.75l-4.44-2.13c-1.33-0.65-2.4-1.31-3.2-1.97
			c-1.47-1.26-2.21-2.66-2.21-4.18c0-2.02,0.87-3.7,2.62-5.04c1.74-1.34,4.05-2.01,6.93-2.01c1.18,0,2.61,0.22,4.28,0.67
			c1.67,0.45,2.62,0.67,2.86,0.67c0.64,0,1.09-0.12,1.33-0.35c0.25-0.23,0.44-0.57,0.57-1h1.07l1.14,8.52h-1.24
			c-0.85-2.57-2.21-4.36-4.08-5.37c-1.87-1.02-3.72-1.52-5.55-1.52c-1.42,0-2.66,0.32-3.72,0.97c-1.06,0.64-1.59,1.54-1.59,2.69
			c0,1.03,0.41,1.91,1.22,2.64c0.81,0.74,2.07,1.52,3.78,2.32l4.57,2.17c2.86,1.35,4.87,2.6,6.05,3.73c1.16,1.15,1.73,2.5,1.73,4.06
			c0,2.1-1.03,3.85-3.08,5.25s-4.68,2.11-7.88,2.11c-1.61,0-3.29-0.23-5.04-0.7s-2.75-0.7-3.01-0.7c-0.61,0-1.02,0.14-1.23,0.43
			c-0.21,0.29-0.35,0.59-0.42,0.92h-1.14l-1.55-8.52H545.2z"/>
		<path class="st0" d="M576.36,433.36c1.56-0.78,4.66-1.84,9.32-3.18v-1.66c0-1.33-0.17-2.25-0.51-2.77
			c-0.58-0.87-1.77-1.31-3.58-1.31c-0.86,0-1.68,0.17-2.46,0.51c-0.78,0.35-1.17,0.83-1.17,1.45c0,0.16,0.04,0.42,0.13,0.79
			c0.08,0.37,0.13,0.61,0.13,0.71c0,0.73-0.31,1.24-0.94,1.52c-0.36,0.17-0.78,0.25-1.27,0.25c-0.76,0-1.35-0.19-1.75-0.58
			s-0.61-0.81-0.61-1.28c0-0.91,0.73-1.87,2.2-2.86c1.46-1,3.61-1.49,6.44-1.49c3.28,0,5.51,0.82,6.68,2.46
			c0.63,0.9,0.94,2.21,0.94,3.93v7.83c0,0.75,0.07,1.28,0.2,1.56c0.22,0.51,0.68,0.76,1.37,0.76c0.39,0,0.71-0.05,0.96-0.14
			s0.69-0.31,1.32-0.66v1.02c-0.54,0.51-1.13,0.92-1.75,1.25c-0.95,0.5-1.91,0.74-2.89,0.74c-1.15,0-1.98-0.29-2.5-0.86
			c-0.52-0.57-0.8-1.26-0.85-2.05c-1.29,0.86-2.39,1.5-3.3,1.91c-1.54,0.7-3,1.05-4.39,1.05c-1.46,0-2.72-0.39-3.78-1.18
			s-1.6-1.79-1.6-3C572.68,436.19,573.9,434.62,576.36,433.36z M585.68,431.15c-1.95,0.5-3.55,1.04-4.82,1.64
			c-2.44,1.16-3.66,2.47-3.66,3.95c0,1.18,0.51,2.06,1.52,2.62c0.66,0.36,1.4,0.55,2.21,0.55c1.12,0,2.19-0.24,3.21-0.72
			c1.02-0.48,1.54-1.09,1.54-1.84V431.15z"/>
		<path class="st0" d="M594.92,441.42c1.57-0.12,2.64-0.36,3.2-0.73s0.84-1.1,0.84-2.18v-19.08c0-0.86-0.09-1.45-0.28-1.78
			c-0.34-0.55-1.02-0.82-2.06-0.82c-0.24,0-0.5,0.02-0.77,0.06s-0.63,0.1-1.05,0.18v-0.64c2.29-0.47,5.04-1.09,8.25-1.88
			c0.12,0,0.19,0.04,0.22,0.12s0.04,0.25,0.04,0.51v23.42c0,1.13,0.25,1.87,0.76,2.2s1.56,0.54,3.15,0.63v0.55h-12.29V441.42z"/>
		<path class="st0" d="M612.83,426.33c2.14-1.79,4.9-2.69,8.26-2.69c3.35,0,6.13,0.85,8.33,2.54s3.3,3.95,3.3,6.76
			c0,2.59-1.07,4.84-3.2,6.76s-4.89,2.87-8.28,2.87c-3.25,0-6-0.92-8.25-2.75s-3.38-4.14-3.38-6.91
			C609.62,430.32,610.69,428.12,612.83,426.33z M616.89,425.84c-1.7,1.18-2.54,3.23-2.54,6.13c0,2.32,0.68,4.48,2.05,6.48
			s3.26,3.01,5.69,3.01c1.9,0,3.36-0.67,4.39-2.01c1.03-1.34,1.54-3.1,1.54-5.27c0-2.25-0.65-4.38-1.96-6.37s-3.2-2.99-5.67-2.99
			C619.03,424.82,617.87,425.16,616.89,425.84z"/>
		<path class="st0" d="M635.24,441.42c1.2-0.12,2.04-0.35,2.53-0.69s0.72-1.12,0.72-2.31v-9.92c0-0.83-0.1-1.41-0.3-1.74
			c-0.32-0.49-0.98-0.74-1.98-0.74c-0.15,0-0.31,0.01-0.47,0.02s-0.36,0.03-0.6,0.06v-0.68c0.69-0.16,2.34-0.56,4.93-1.21l2.39-0.61
			c0.12,0,0.19,0.03,0.22,0.1s0.04,0.16,0.04,0.27v2.87c1.55-1.12,2.77-1.89,3.65-2.3c1.32-0.64,2.69-0.96,4.11-0.96
			c1.15,0,2.2,0.25,3.14,0.76c1.83,0.99,2.74,2.75,2.74,5.29v9.12c0,0.94,0.24,1.61,0.73,2.03s1.3,0.63,2.44,0.64v0.55h-10.84v-0.55
			c1.24-0.13,2.1-0.39,2.59-0.79s0.74-1.26,0.74-2.59v-8.34c0-1.12-0.27-2.05-0.81-2.78c-0.54-0.74-1.53-1.1-2.98-1.1
			c-0.99,0-2,0.26-3.03,0.78c-0.57,0.3-1.31,0.79-2.22,1.48v10.94c0,0.94,0.27,1.57,0.81,1.88s1.4,0.49,2.56,0.52v0.55h-11.1V441.42
			z"/>
	</g>
	<path class="st0" d="M379.53,435.35c3.33-3.02,7-5.27,11.02-6.75c7.15-2.66,16.8-3.99,28.95-3.99c6.86,0,20.23,0.87,40.12,2.6l0,0
		c19.88,1.73,32.57,2.6,38.06,2.6c7.25,0,13.84,0.23,18.84-1.23c2.56-0.75,12.54-3.03,17.31-5.39l0,0
		c-4.9,4.18-10.78,7.04-17.63,8.58c-6.76,1.54-14.69,2.31-23.81,2.31c-8.43,0-22.33-0.89-41.73-2.66
		c-19.3-1.77-31.2-2.66-35.71-2.66c-8.04,0-15.79,0.04-21.37,1.88"/>
</g>
<path class="st0" d="M666.62,435.49c3.33-3.02,7-5.27,11.02-6.75c7.15-2.66,16.8-3.99,28.95-3.99c6.86,0,20.23,0.87,40.12,2.6l0,0
	c19.88,1.73,32.57,2.6,38.06,2.6c7.25,0,13.84,0.23,18.84-1.23c2.56-0.75,12.54-3.03,17.31-5.39l0,0
	c-4.9,4.18-10.78,7.04-17.63,8.58c-6.76,1.54-14.69,2.31-23.8,2.31c-8.43,0-22.34-0.89-41.73-2.66c-19.3-1.77-31.2-2.66-35.71-2.66
	c-8.04,0-16.33,0.52-21.91,2.35"/>
</svg>
