<?xml version="1.0" encoding="utf-8"?>
<!-- Generator: Adobe Illustrator 24.0.0, SVG Export Plug-In . SVG Version: 6.00 Build 0)  -->
<svg version="1.1" id="Layer_1" xmlns="http://www.w3.org/2000/svg" xmlns:xlink="http://www.w3.org/1999/xlink" x="0px" y="0px"
	 viewBox="0 0 612 792" style="enable-background:new 0 0 612 792;" xml:space="preserve">
<style type="text/css">
	.st0{fill-rule:evenodd;clip-rule:evenodd;fill:#FFFFFF;}
	.st1{fill-rule:evenodd;clip-rule:evenodd;}
</style>
<g>
	<polygon class="st0" points="209,300 401.76,300 401.76,492.76 209,492.76 209,300 	"/>
	<path class="st1" d="M269.73,401.81c0.01-0.1,0.01-0.2,0-0.3c-0.1-0.02-0.16-0.02-0.2,0l-0.24,0.14c-0.45,0.26-1.22,0.58-2.33,0.96
		c-1.08,0.37-2.56,0.69-4.43,0.96c-1.76,0.25-3.71,0.23-5.87-0.08c-0.94-0.13-1.85-0.37-2.73-0.71c-0.23-0.09-0.37-0.19-0.43-0.31
		c-0.01-0.03-0.03-1.14-0.07-3.34l-0.01-8.77c0.11-0.16,0.44-0.33,1-0.49c0.92-0.27,2.16-0.33,3.71-0.16
		c0.77,0.08,1.88,0.34,3.31,0.77l0.27,0.08l0.27,0.08c0.05,0.02,0.13,0,0.23-0.05c0-2.04-0.02-3.35-0.07-3.93l-8.8-0.19l-0.13-9.09
		c-0.01-0.47,0.02-0.75,0.11-0.87c0.27-0.36,0.87-0.58,1.82-0.66c0.01,0,0.11-0.01,0.28-0.04c0.3-0.04,1.49-0.06,3.59-0.06
		c1.46,0,2.32,0.01,2.57,0.04c0.82,0.09,1.52,0.27,2.37,0.85c0.04,0.03,0.12,0.08,0.24,0.16c0.19,0.13,0.34,0.23,0.47,0.33
		c0.2,0.15,0.35,0.24,0.46,0.27l-0.03-4.84l-18.43,0.05c0.5,0.81,0.85,1.52,1.07,2.15c0.24,0.68,0.36,1.38,0.38,2.07l0.27,23.96
		c-0.01,0.66,0.01,1.26,0.03,1.81c0.06,1.05-0.12,1.82-0.53,2.29c-0.53,0.62-0.79,0.7-1.78,0.26c-1.09-0.49-2.39-1.46-3.91-2.9
		c-0.74-0.7-1.57-1.57-2.5-2.59c-2.69-2.97-5.34-6.21-7.97-9.74c-0.01-0.07,0.02-0.14,0.07-0.19c1.78-0.4,3.81-1.44,4.63-1.98
		c2.75-1.78,4.02-4.2,3.81-7.27c-0.16-2.28-1.41-4.5-3.32-5.76c-1.11-0.74-1.92-1.27-4.36-1.9c-1.07-0.28-2.22-0.4-3.45-0.35
		c-0.69,0.02-3.59,0.03-8.68,0.02c-1.76,0-2.74,0.03-2.92,0.09c0.02,0.11,0.11,0.29,0.24,0.55c0.45,0.84,0.88,2.7,0.91,3.5
		l0.17,26.96c-0.08,0.42-0.23,1-0.45,1.76c-0.09,0.31-0.32,0.86-0.71,1.66l6.94,0.2c0.43,0.02,0.69-0.04,0.78-0.18
		c-0.79-1.39-1.39-2.62-1.37-4.56l0.36-26.81c1.07-0.29,3.67-0.28,5.23,0.04c1.86,0.38,3.18,1.07,3.96,2.07c1,1.28,1.4,2.8,1.2,4.55
		c-0.28,2.44-1.8,4.37-4.56,5.8c-0.91,0.47-1.97,0.84-3.17,1.1c-1.11,0.24-1.36,0.79-0.76,1.63c0.12,0.17,0.62,0.79,1.51,1.86
		c0.73,0.87,1.29,1.57,1.7,2.1c0.08,0.11,1.35,1.65,3.8,4.63c1.04,1.27,1.67,2.04,1.88,2.31c0.68,0.89,1.39,1.73,2.13,2.49
		l0.21,0.21c1.28,1.32,2.64,2.15,4.1,2.5c0.72,0.17,1.47,0.24,2.26,0.21c0.16-0.01,2.83-0.01,8.02-0.01l12.71-0.04
		c1.68,0,2.55-0.01,2.6-0.02c0.2-0.06,0.91-0.71,1.22-1.26C269.2,404.31,269.65,402.99,269.73,401.81L269.73,401.81z"/>
	<path class="st1" d="M358.89,401.4c0.01-0.1,0.01-0.2,0.02-0.3c-0.05-0.06-0.11-0.08-0.17-0.08c-0.89,0.63-3.75,1.76-7.88,2.16
		c-4.01,0.4-7.64-0.55-8.17-1.12l-0.11-12.11c0.16-0.29,0.77-0.51,1.84-0.68c2.62-0.41,5.2,0.41,6.48,0.83
		c0.16,0.05,0.25,0.08,0.27,0.07c0.07-0.01,0.14-0.05,0.19-0.11c-0.04-2.47-0.07-3.79-0.1-3.93c-0.17-0.02-1.44-0.02-3.81-0.02
		c-0.39,0-0.77,0-1.16,0H346l-0.29,0.02h-0.3c-0.61,0-1.21,0-1.82,0h-0.3l-0.29-0.01l-0.3,0.01c-0.07,0-0.13-0.05-0.2-0.16
		l-0.12-9.41c-0.04-0.62,0.54-1.01,1.75-1.14c0.72-0.08,1.71-0.12,2.97-0.12l0.88-0.02c1.79,0,2.88,0.03,3.25,0.1
		c0.91,0.16,1.75,0.56,2.53,1.19c0.21,0.17,0.36,0.29,0.46,0.34c0.07-0.15,0.1-0.43,0.08-0.86c-0.04-0.88-0.05-1.89-0.02-3.03
		c0.02-0.71-0.06-1.07-0.23-1.07l-18.22,0.24c0.52,0.89,0.85,1.51,0.99,1.86c0.43,1.1,0.44,1.28,0.47,2.97l0.29,24.54
		c0.01,0.89-0.09,1.58-0.32,2.08c-0.4,0.86-0.77,1.3-1.12,1.31c-0.39,0.01-1.15-0.35-2.27-1.1c-0.79-0.52-1.81-1.41-3.09-2.68
		l-11.46-13.71l7.96-9.72c1.59-1.93,2.89-3.58,3.9-4.94c0.22-0.3,0.34-0.46,0.35-0.49c0.02-0.08,0.03-0.15,0.02-0.23
		c-0.1,0-0.2,0-0.3,0c-0.55-0.02-6.17-0.04-6.83,0.03c0.35,1.05,0.14,2.09-0.63,3.12l-9.55,12.67c-0.27,0.55-0.17,1.11,0.28,1.67
		l9.92,11.92c1.3,1.58,2.31,2.67,3.02,3.26l0.23,0.19c1.96,1.62,3.73,1.75,5.3,1.75c0.8,0,1.6,0,2.4,0c2.21,0,3.69-0.01,4.42-0.04
		c0.37-0.01,2.85-0.02,7.44-0.02h0.3l0.29-0.02c0.2-0.01,0.89-0.02,2.09-0.02h0.3c3.94,0,5.94-0.01,6.01-0.02
		c0.57-0.12,1.42-1.35,1.71-1.97C358.17,404.16,358.8,402.5,358.89,401.4L358.89,401.4z"/>
	<path class="st1" d="M393.25,371.93l-6.61-0.04c-0.01,0.06-0.01,0.09,0,0.1l0.17,0.25c0.35,0.54,0.65,1.18,0.9,1.93
		c0.24,0.72,0.36,1.42,0.37,2.1l0,0.31l0.25,19.03c0.01,1.21-0.95,1.1-1.22,0.91l-20.7-24.59l-6.13,0.13
		c0.03,0.05,0.13,0.23,0.32,0.53c0.32,0.53,1.12,2.25,1.14,3.54c0.01,0.63,0.03,2.78,0.07,6.43c0,0.17,0.01,0.48,0.02,0.92
		c0.02,0.73,0.06,4.39,0.14,10.98c0,0.07,0.02,0.99,0.05,2.75c0.06,3.47,0.07,5.3,0.05,5.49c-0.05,0.47-0.63,2.56-0.98,3.22
		l-0.14,0.27c-0.1,0.19-0.14,0.31-0.14,0.37c0.04,0.04,0.07,0.06,0.1,0.06l6.41-0.08c0.01,0,0.02-0.01,0.02-0.02
		c-0.02-0.07-0.16-0.33-0.41-0.81c-0.4-0.74-0.92-2.22-0.94-3.23c-0.03-1.09-0.1-7.23-0.22-18.42c0-0.13-0.01-0.95-0.04-2.45
		c-0.01-0.73,0.18-1.08,0.56-1.06l18.08,21.07c1.3,1.58,2.4,2.59,4.34,4.19c0.79,0.65,1.55,1.13,2.28,1.46
		c0.94,0.42,1.4,0.06,1.38-1.09c-0.01-0.68-0.07-4.74-0.16-12.16c0-0.2-0.02-1.11-0.05-2.73l-0.17-14.6c0-1.12,0.06-1.87,0.15-2.26
		c0.21-0.82,0.52-1.56,0.94-2.24L393.25,371.93L393.25,371.93z"/>
	<path class="st1" d="M303.73,389.08c-0.1-2-0.41-3.79-0.91-5.38c-0.22-0.68-0.38-1.16-0.5-1.43c-1.4-3.22-3.28-5.44-6.69-7.48
		c-1.38-0.82-2.96-1.45-4.75-1.89c-1.8-0.44-3.5-0.66-5.09-0.66l-14.85,0.06c-0.08,0.04-0.04,0.18,0.12,0.42
		c1.21,1.89,1.29,3.11,1.3,4.6l0.22,18.01c0.07,4.89,0.09,7.43,0.07,7.63c-0.03,0.34-0.17,0.83-0.4,1.46
		c-0.25,0.67-0.56,1.3-0.94,1.89c-0.2,0.32-0.3,0.52-0.3,0.58l14.82-0.08c3.84-0.35,7.19-1.36,10.04-3.04
		C301.38,400.53,304.02,394.85,303.73,389.08L303.73,389.08z"/>
	<path class="st0" d="M297.32,394.83c-0.61,1.62-1.47,2.96-2.56,4.04c-2.04,2.01-4.57,3.38-7.57,4.11
		c-3.57,0.86-6.47,0.82-8.71-0.13c-0.37-0.16-0.56-0.24-0.56-0.24c-0.11-0.08-0.18-0.15-0.2-0.22c-0.02-0.04-0.12-8.79-0.3-26.23
		c0.56-0.49,2.84-0.68,6.84-0.56c3.73,0.11,6.85,1.15,9.35,3.12c0.07,0.05,1.35,1.19,2.06,2.21c1.08,1.54,2.06,3.42,2.45,7.45
		C298.31,390.56,298.1,392.78,297.32,394.83L297.32,394.83z"/>
	<path class="st1" d="M314.1,406.77l-0.01-0.08l-0.17-0.24c-0.01-0.01-0.05-0.1-0.13-0.27l-0.13-0.28c0-0.01-0.05-0.09-0.14-0.27
		c-0.53-1-0.81-2.16-0.83-3.51l-0.22-26.82c0.14-0.88,0.49-1.78,1.03-2.7c0.16-0.26,0.19-0.4,0.1-0.4l-0.45-0.02h-6.82l-0.5,0.06
		c-0.01,0.05,0.05,0.17,0.17,0.35c0.84,1.32,1.27,2.71,1.3,4.18l0.3,26.1c-0.07,0.74-0.7,2.86-1.11,3.56l-0.16,0.27
		c0,0.01,0,0.04,0,0.08c0.03,0.06,0.12,0.08,0.26,0.08h4.54C312.92,406.86,313.91,406.83,314.1,406.77L314.1,406.77z"/>
	<polygon class="st1" points="269.22,418.2 272.61,418.2 273.51,420.59 274.64,420.59 271.43,412.45 270.38,412.45 267.29,420.59 
		268.37,420.59 269.22,418.2 	"/>
	<polygon class="st1" points="375.11,420.59 376.13,420.59 376.13,417.22 379.42,412.45 378.19,412.45 375.65,416.21 373.24,412.45 
		371.94,412.45 375.11,417.29 375.11,420.59 	"/>
	<path class="st1" d="M392,418.96c-0.1,0.05-0.2,0.1-0.32,0.15c-0.66,0.34-1.3,0.52-1.89,0.52c-1.45,0-2.62-1.01-2.92-2.53
		c-0.05-0.3-0.07-0.59-0.07-0.89c0-0.96,0.29-1.92,1-2.66c0.56-0.59,1.37-0.79,2.08-0.79c0.69,0,1.27,0.2,1.49,0.34l0.27,0.17
		c0.03,0.02,0.07,0.05,0.15,0.05c0.29,0,0.32-0.34,0.32-0.42c0-0.12,0.03-0.25,0.03-0.32l0.02-0.07l-0.05-0.1
		c-0.22-0.32-0.68-0.49-1.3-0.62c-0.34-0.07-0.66-0.1-0.96-0.1c-1.76,0-3.16,0.96-3.75,2.36c-0.29,0.76-0.44,1.5-0.44,2.24
		c0,1.16,0.37,2.24,0.96,2.95c0.74,0.96,1.89,1.43,3.38,1.43c0.78,0,1.64-0.27,2.03-0.57c0.1-0.07,0.27-0.22,0.27-0.44v-0.52v-0.34
		L392,418.96L392,418.96z"/>
	<polygon class="st1" points="283.43,420.59 284.53,420.59 287.45,412.45 286.27,412.45 283.97,419.16 281.66,412.45 280.46,412.45 
		283.43,420.59 	"/>
	<polygon class="st1" points="359.05,420.59 360.08,420.59 360.08,414.27 364.46,420.59 365.42,420.59 365.42,412.45 364.34,412.45 
		364.34,418.82 359.98,412.45 359.05,412.45 359.05,420.59 	"/>
	<polygon class="st1" points="307.09,420.68 308.12,420.68 308.12,414.36 312.48,420.68 313.46,420.68 313.46,412.54 312.39,412.54 
		312.39,418.91 308.02,412.54 307.09,412.54 307.09,420.68 	"/>
	<path class="st1" d="M321.75,412.53v5.49c0,0.94,0.34,1.7,0.91,2.16c0.46,0.37,1.23,0.69,2.18,0.69c0.64,0,1.03-0.1,1.37-0.22
		c0.91-0.39,1.4-0.91,1.62-1.87c0.1-0.32,0.12-0.61,0.12-0.94v-5.31h-1.03v5.31c0,0.64-0.15,1.03-0.32,1.28
		c-0.17,0.27-0.42,0.47-0.71,0.61c-0.29,0.15-0.64,0.17-1.01,0.17c-0.81,0-1.3-0.22-1.57-0.49c-0.34-0.29-0.54-0.69-0.54-1.33v-5.56
		H321.75L321.75,412.53z"/>
	<polygon class="st1" points="233.05,420.59 234.11,420.59 234.11,413.43 236.7,413.43 236.7,412.45 230.45,412.45 230.45,413.41 
		233.08,413.41 233.05,420.59 	"/>
	<polygon class="st1" points="335.76,420.59 341.45,420.59 341.45,419.65 336.81,419.65 336.81,416.9 340.96,416.9 340.96,415.99 
		336.81,415.99 336.81,413.41 341.35,413.41 341.32,412.45 335.78,412.45 335.76,420.59 	"/>
	<polygon class="st1" points="294.1,420.68 299.79,420.68 299.79,419.75 295.16,419.75 295.16,416.99 299.3,416.99 299.3,416.08 
		295.16,416.08 295.16,413.5 299.69,413.5 299.67,412.54 294.12,412.54 294.1,420.68 	"/>
	<polygon class="st1" points="243.81,420.59 244.87,420.59 244.87,416.83 249.01,416.83 249.01,420.59 250.02,420.59 250.02,412.45 
		249.01,412.45 249.01,415.91 244.87,415.91 244.87,412.45 243.84,412.45 243.81,420.59 	"/>
	<path class="st1" d="M217.93,418.63c0,0.76,0.42,1.48,1.18,1.9c0.32,0.2,0.81,0.34,1.52,0.34c1.62,0,2.75-1.13,2.75-2.76
		c0-0.86-0.34-1.65-0.81-2.07c-0.42-0.39-1.1-0.66-1.86-0.66c-0.54,0-1.03,0.12-1.47,0.39l0.37-2.34h3.38v-0.94h-4.17l-0.66,4.53
		l0.71,0.07h0.12l0.05-0.1c0.39-0.44,0.91-0.69,1.5-0.69c0.56,0,1.08,0.22,1.3,0.47c0.27,0.25,0.51,0.74,0.51,1.3
		c0,1.21-0.76,1.87-1.67,1.87c-1.27,0-1.67-0.81-1.69-1.36l-0.05-0.19h-0.17h-0.61h-0.22V418.63L217.93,418.63z"/>
	<polygon class="st0" points="269.51,417.34 270.81,413.77 272.19,417.34 269.51,417.34 	"/>
</g>
</svg>
